<?xml version="1.0" standalone="no"?>
<!DOCTYPE svg PUBLIC "-//W3C//DTD SVG 20010904//EN"
 "http://www.w3.org/TR/2001/REC-SVG-20010904/DTD/svg10.dtd">
<svg version="1.0" xmlns="http://www.w3.org/2000/svg"
 width="512.000000pt" height="512.000000pt" viewBox="0 0 512.000000 512.000000"
 preserveAspectRatio="xMidYMid meet">
<metadata>
Created by potrace 1.11, written by Peter Selinger 2001-2013
</metadata>
<g transform="translate(0.000000,512.000000) scale(0.100000,-0.100000)"
fill="#000000" stroke="none">
<path d="M2402 4963 c-5 -10 -38 -83 -72 -163 -34 -80 -64 -146 -65 -148 -1
-1 -38 -9 -81 -17 l-79 -15 -126 132 -127 132 -121 -44 c-67 -24 -126 -47
-132 -51 -7 -4 -16 -77 -23 -185 l-11 -179 -65 -37 c-36 -21 -71 -38 -78 -38
-7 0 -80 34 -162 75 -82 41 -154 75 -159 75 -17 0 -211 -170 -211 -185 0 -7
20 -81 45 -164 25 -83 45 -159 45 -168 0 -10 -24 -44 -53 -75 l-52 -58 -169
20 c-93 12 -175 19 -181 16 -6 -2 -42 -57 -78 -121 l-67 -117 107 -145 107
-146 -23 -67 c-13 -37 -26 -72 -30 -78 -4 -6 -85 -30 -181 -54 l-175 -43 -22
-120 c-12 -66 -22 -128 -22 -137 -1 -12 49 -51 149 -118 l150 -100 0 -83 0
-82 -150 -99 c-83 -54 -150 -103 -150 -107 0 -36 45 -256 54 -265 6 -5 83 -27
171 -48 88 -21 165 -44 171 -50 12 -12 54 -125 54 -145 0 -6 -47 -75 -105
-152 l-105 -141 67 -119 c79 -137 56 -128 248 -104 189 23 184 24 238 -42 26
-32 47 -65 47 -73 0 -8 -22 -88 -48 -177 l-49 -162 108 -91 109 -90 162 81
163 81 71 -42 72 -41 7 -149 c11 -229 -2 -207 148 -261 l127 -47 126 131 125
131 77 -13 c42 -7 80 -16 84 -20 4 -3 39 -78 77 -166 l69 -160 140 -3 139 -3
73 166 c40 91 76 167 80 170 4 2 40 10 80 16 l74 13 126 -131 127 -130 129 47
129 46 6 55 c4 30 10 111 14 181 l7 127 71 42 72 41 162 -81 162 -80 103 85
c57 48 105 90 106 95 3 8 -31 132 -82 300 l-14 46 50 62 c59 71 47 69 254 44
77 -9 147 -14 156 -11 15 6 140 213 141 233 0 6 -46 73 -103 149 l-103 140 11
43 c7 24 20 60 30 80 l17 37 168 42 c93 23 171 45 174 48 6 6 52 236 53 263 0
6 -67 55 -150 108 l-150 97 0 84 0 84 150 100 c82 55 150 104 150 108 0 18
-47 262 -51 266 -2 3 -82 24 -178 48 l-174 43 -23 65 c-13 36 -24 72 -24 80 0
9 47 79 105 157 l104 142 -65 113 c-36 62 -69 117 -74 121 -4 5 -88 -1 -185
-12 -98 -12 -179 -20 -180 -19 0 2 -24 30 -52 64 l-52 61 49 164 c28 90 50
169 50 175 0 9 -115 112 -193 173 -17 13 -35 7 -178 -65 l-160 -79 -65 35
c-36 19 -69 39 -74 45 -4 5 -13 88 -19 184 -6 96 -13 176 -15 178 -2 2 -61 24
-131 50 l-128 47 -126 -132 -126 -133 -79 16 c-44 8 -81 16 -82 18 -1 1 -34
74 -72 162 l-69 160 -141 3 c-127 2 -142 1 -150 -15z m97 -121 c17 -27 31 -53
31 -57 0 -5 -13 11 -28 36 -42 66 -44 69 -39 69 3 0 19 -22 36 -48z m-858 -89
c13 -16 12 -17 -3 -4 -10 7 -18 15 -18 17 0 8 8 3 21 -13z m129 -96 c0 -4 -25
11 -55 34 -30 23 -55 43 -55 46 0 7 109 -72 110 -80z m1449 -74 c-56 -60 -125
-123 -134 -123 0 0 45 47 100 104 55 57 102 103 104 100 2 -2 -29 -39 -70 -81z
m-790 -15 c-16 -31 -40 -58 -64 -70 -10 -6 1 12 25 40 51 58 56 61 39 30z
m-715 -245 c-9 -15 -27 -35 -38 -45 -26 -21 -96 -61 -96 -55 0 3 20 17 45 31
24 15 57 42 72 61 33 42 42 46 17 8z m-601 -54 c-6 -6 -17 -8 -24 -3 -9 5 -8
9 7 14 23 9 31 3 17 -11z m1262 -43 c50 -21 58 -63 47 -236 -10 -162 -15 -172
-101 -196 -31 -8 -93 -26 -137 -40 -113 -33 -154 -32 -191 6 -32 33 -146 220
-158 258 -12 40 13 81 66 107 59 30 228 80 334 99 104 18 100 18 140 2z m511
-7 c188 -36 327 -87 358 -131 24 -34 19 -65 -21 -137 -113 -203 -146 -233
-237 -213 -124 28 -258 71 -277 88 -33 30 -38 54 -40 206 -3 155 4 180 51 197
37 14 48 13 166 -10z m-1316 -4 c0 -2 -10 -9 -22 -15 -22 -11 -22 -10 -4 4 21
17 26 19 26 11z m2003 -291 c95 -49 280 -230 331 -324 49 -91 34 -112 -159
-219 -92 -51 -118 -61 -159 -61 -49 0 -50 1 -153 103 -109 106 -133 139 -133
181 0 26 79 185 133 268 45 68 81 82 140 52z m-1941 -21 c14 -16 43 -59 65
-98 130 -226 129 -236 -44 -403 -118 -114 -131 -115 -296 -29 -182 94 -211
131 -171 210 45 87 191 241 296 312 67 45 113 47 150 8z m-498 -35 c-20 -35
-120 -150 -138 -160 -12 -6 -1 11 24 38 25 27 61 68 79 92 33 41 50 55 35 30z
m2146 -28 c-6 -11 -13 -20 -16 -20 -2 0 0 9 6 20 6 11 13 20 16 20 2 0 0 -9
-6 -20z m-2699 -71 c31 -63 38 -84 28 -93 -9 -8 -10 -8 -5 1 4 7 -12 48 -34
93 -22 44 -38 80 -35 80 3 0 23 -37 46 -81z m2648 -18 c-28 -51 -79 -125 -66
-96 11 25 90 155 94 155 2 0 -10 -27 -28 -59z m-769 -5 c-14 -7 -36 -16 -50
-20 -14 -3 -7 3 15 13 45 22 73 27 35 7z m193 -125 c38 -5 71 -12 74 -14 3 -3
0 -21 -5 -39 -6 -18 -16 -52 -22 -75 l-11 -43 -110 1 c-60 0 -130 -3 -154 -6
l-43 -7 -25 78 c-13 44 -20 83 -16 88 18 20 205 30 312 17z m485 2 c-10 -2
-26 -2 -35 0 -10 3 -2 5 17 5 19 0 27 -2 18 -5z m-160 -85 c73 -30 252 -142
252 -156 0 -4 -26 -34 -58 -65 l-59 -58 -54 36 c-30 20 -89 53 -131 73 -43 20
-78 42 -78 48 0 29 33 154 42 154 5 0 44 -14 86 -32z m-773 -67 c20 -75 21
-83 6 -88 -51 -17 -125 -56 -185 -97 l-69 -48 -59 59 -59 58 33 29 c76 66 277
181 302 173 5 -2 19 -40 31 -86z m-365 14 c0 -2 -20 -27 -44 -54 -24 -27 -47
-59 -51 -70 -3 -12 -12 -21 -18 -21 -7 0 -34 -18 -61 -40 -26 -22 -51 -40 -54
-40 -12 0 36 44 80 72 26 17 48 37 48 44 0 6 21 35 46 63 43 48 54 57 54 46z
m915 -85 c-4 -12 -9 -19 -12 -17 -3 3 -2 15 2 27 4 12 9 19 12 17 3 -3 2 -15
-2 -27z m1220 -6 c-25 -20 -75 -46 -75 -40 0 5 82 56 90 56 3 -1 -4 -8 -15
-16z m-1658 -56 c-3 -7 -5 -2 -5 12 0 14 2 19 5 13 2 -7 2 -19 0 -25z m910
-76 c-31 -31 -57 -53 -57 -49 0 13 102 118 109 112 3 -3 -21 -31 -52 -63z
m-913 13 c-10 -8 -23 -14 -29 -14 -5 -1 1 8 15 19 14 10 27 17 29 14 3 -2 -4
-11 -15 -19z m1750 -5 c35 -13 61 -58 97 -170 66 -206 85 -350 49 -388 -27
-29 -68 -35 -212 -30 -182 6 -181 5 -234 188 -45 160 -49 182 -33 215 15 33
114 103 223 160 76 39 75 39 110 25z m-2877 -58 c117 -66 172 -109 184 -140
12 -29 11 -34 -40 -222 -42 -158 -46 -161 -203 -172 -258 -18 -285 7 -238 232
33 162 79 290 117 329 42 42 66 39 180 -27z m2235 -37 c52 -72 145 -242 136
-249 -1 -2 -40 -12 -86 -23 l-83 -21 -40 81 c-22 45 -56 102 -75 128 -19 26
-34 50 -34 54 0 16 96 115 110 113 8 -2 41 -39 72 -83z m-1619 -3 l49 -49 -36
-50 c-19 -27 -54 -88 -76 -135 l-41 -85 -81 20 c-78 19 -80 21 -75 47 10 48
74 174 126 248 59 83 57 83 134 4z m311 -12 c-32 -16 -60 -28 -61 -26 -5 5 91
56 106 56 8 0 -13 -13 -45 -30z m-138 -42 l29 -33 -32 29 c-18 17 -33 31 -33
33 0 8 8 1 36 -29z m484 -1 c0 -22 3 -23 85 -23 73 1 85 3 85 18 0 24 16 30
59 23 57 -9 76 -26 62 -53 -9 -17 -8 -22 7 -26 10 -4 45 -22 77 -42 50 -30 60
-33 67 -19 14 24 31 18 73 -26 40 -41 40 -41 19 -55 l-22 -15 34 -51 c19 -28
37 -61 40 -74 6 -25 19 -31 29 -14 13 22 35 8 44 -27 23 -96 23 -93 -4 -93
-25 0 -25 -1 -25 -85 0 -84 0 -85 25 -85 29 0 30 -8 10 -78 -17 -57 -17 -57
-46 -42 -16 9 -21 7 -30 -17 -6 -15 -24 -50 -41 -76 -29 -45 -30 -49 -13 -61
17 -12 17 -15 -10 -50 -30 -39 -67 -65 -72 -50 -12 35 -22 38 -45 17 -13 -12
-46 -32 -74 -45 -50 -23 -51 -25 -39 -48 13 -24 12 -25 -28 -37 -64 -19 -97
-17 -97 6 0 18 -9 20 -85 23 l-85 3 0 -26 c0 -26 -1 -26 -45 -18 -70 13 -88
25 -74 51 8 15 8 23 1 26 -5 1 -39 20 -74 42 -61 37 -63 38 -78 19 -15 -18
-17 -18 -58 22 -45 45 -50 56 -27 65 21 8 20 13 -26 92 -37 64 -43 70 -61 61
-25 -14 -28 -10 -43 55 -14 59 -12 66 17 66 16 0 18 9 18 85 0 84 0 85 -25 85
-24 0 -26 2 -19 38 8 46 27 88 40 85 5 -1 17 -5 27 -8 11 -5 17 -2 17 7 0 8
18 42 39 76 39 60 39 61 19 74 -21 14 -21 15 17 56 41 46 52 50 69 26 10 -13
20 -10 80 24 83 49 80 46 67 71 -10 19 -7 22 36 35 69 21 83 20 83 -7z m-1772
-19 c-13 -17 -35 -38 -49 -47 -14 -8 -6 5 21 32 51 54 63 61 28 15z m-393 -78
c33 -33 57 -60 54 -60 -2 0 -31 27 -64 60 -33 33 -57 60 -54 60 2 0 31 -27 64
-60z m1646 -37 c-11 -21 -20 -34 -21 -30 0 14 32 78 37 73 2 -2 -5 -21 -16
-43z m1669 -117 c0 -2 -9 -6 -20 -9 -11 -3 -18 -1 -14 4 5 9 34 13 34 5z
m-1785 -86 c-16 -31 -28 -34 -80 -19 -25 7 -23 8 12 4 37 -5 45 -2 59 20 22
34 28 31 9 -5z m1790 -86 c7 -73 2 -310 -6 -319 -2 -2 -39 6 -82 18 l-77 22
-4 156 -3 156 61 21 c103 34 103 34 111 -54z m-2021 20 l61 -15 0 -122 c0 -67
3 -136 7 -154 l7 -32 -82 -25 c-55 -17 -85 -22 -92 -15 -12 12 -14 344 -2 373
4 12 13 16 24 12 9 -4 43 -13 77 -22z m-229 -63 c-22 -44 -27 -38 -7 9 9 21
18 35 20 30 2 -5 -4 -22 -13 -39z m3006 -39 c-5 -10 -16 -23 -23 -29 -17 -13
-100 -24 -92 -12 3 5 20 9 38 9 22 0 40 8 56 25 28 30 34 32 21 7z m-1211 -18
c0 -2 -9 0 -20 6 -11 6 -20 13 -20 16 0 2 9 0 20 -6 11 -6 20 -13 20 -16z
m-1843 -30 c-3 -3 -12 -4 -19 -1 -8 3 -5 6 6 6 11 1 17 -2 13 -5z m2872 -139
c16 -8 31 -22 35 -30 19 -50 -2 -187 -55 -360 -39 -126 -64 -171 -102 -184
-36 -13 -76 3 -201 78 -137 83 -156 113 -130 205 8 28 25 92 38 141 28 110 40
130 86 149 50 21 290 22 329 1z m-2915 -24 c15 -14 31 -43 37 -65 5 -23 23
-89 39 -147 17 -58 30 -115 30 -127 0 -37 -57 -88 -173 -156 -126 -74 -159
-81 -200 -41 -46 47 -121 292 -134 442 -5 68 -4 72 21 98 l26 26 164 -3 c158
-3 165 -4 190 -27z m-683 -28 c-14 -27 -48 -55 -150 -123 -81 -54 -96 -61
-115 -51 -20 10 -20 11 -1 6 25 -6 181 94 234 149 39 40 46 44 32 19z m3084
-52 c-8 -17 -19 -33 -25 -36 -5 -3 -1 10 11 29 25 43 36 48 14 7z m-1950 9
c-3 -5 -14 -10 -23 -10 -15 0 -15 2 -2 10 20 13 33 13 25 0z m1515 -49 c0 -6
-12 -23 -26 -38 l-25 -28 23 37 c24 40 28 44 28 29z m-3020 -31 c8 -5 11 -10
5 -10 -5 0 -17 5 -25 10 -8 5 -10 10 -5 10 6 0 17 -5 25 -10z m3322 -24 l28
-6 -26 -68 c-14 -37 -39 -92 -56 -122 -36 -63 -105 -160 -116 -160 -12 0 -112
104 -112 117 0 6 13 32 30 56 16 25 47 78 68 118 20 41 41 79 45 86 5 8 20 8
60 -2 28 -7 64 -16 79 -19z m-1807 -48 c10 -28 42 -87 72 -131 l53 -80 -29
-36 c-16 -20 -41 -47 -55 -60 -25 -24 -26 -24 -47 -5 -52 47 -202 305 -186
320 7 7 135 42 158 43 10 1 22 -18 34 -51z m1435 20 c0 -5 -11 -1 -25 8 -14 9
-25 18 -25 20 0 2 11 -2 25 -8 14 -6 25 -15 25 -20z m-58 -138 c-11 -17 -37
-43 -58 -57 -36 -24 -34 -22 14 25 28 28 52 56 52 63 0 7 2 10 6 7 3 -3 -4
-20 -14 -38z m-272 -56 c0 -2 -9 0 -20 6 -11 6 -20 13 -20 16 0 2 9 0 20 -6
11 -6 20 -13 20 -16z m767 -26 c-2 -13 -4 -5 -4 17 -1 22 1 32 4 23 2 -10 2
-28 0 -40z m-2120 -20 c-3 -7 -5 -2 -5 12 0 14 2 19 5 13 2 -7 2 -19 0 -25z
m1403 1 c12 -16 20 -32 17 -35 -2 -3 -14 11 -25 31 -26 43 -21 46 8 4z m-1460
-43 c-17 -15 -139 -84 -128 -71 9 9 131 85 138 85 2 0 -2 -6 -10 -14z m490 1
c0 -1 -28 -29 -62 -62 l-63 -60 60 63 c55 58 65 67 65 59z m955 -17 c-3 -5
-16 -15 -28 -21 -21 -10 -21 -9 2 10 25 23 36 27 26 11z m625 -13 c0 -2 -19
-21 -42 -42 l-43 -40 40 43 c36 39 45 47 45 39z m-299 -74 c57 -54 59 -57 42
-76 -56 -62 -319 -210 -328 -185 -10 29 -35 137 -35 150 0 8 36 31 79 53 43
21 101 55 128 76 26 21 49 38 51 38 2 1 30 -24 63 -56z m-1171 6 c25 -16 85
-50 133 -75 68 -34 87 -49 83 -61 -4 -9 -12 -45 -19 -80 -11 -61 -13 -64 -37
-58 -49 11 -206 93 -269 140 l-64 47 59 59 c32 32 61 59 64 59 3 0 25 -14 50
-31z m-760 6 c0 -2 -10 -9 -22 -15 -22 -11 -22 -10 -4 4 21 17 26 19 26 11z
m3003 -36 c-17 -29 -89 -99 -103 -99 -5 0 110 126 118 129 2 1 -5 -13 -15 -30z
m-2715 -3 c15 -8 73 -61 130 -119 133 -135 133 -141 35 -324 -36 -67 -76 -132
-89 -144 -57 -53 -144 -11 -300 145 -90 91 -150 170 -161 213 -14 58 31 100
213 194 100 52 128 58 172 35z m2135 -17 c99 -50 195 -108 217 -131 51 -55 9
-141 -144 -294 -165 -165 -238 -197 -300 -130 -44 47 -147 239 -153 285 -7 54
11 82 130 199 98 96 106 102 146 102 27 0 64 -11 104 -31z m-373 -62 c0 -1
-24 -25 -52 -52 l-53 -50 50 53 c46 48 55 57 55 49z m789 -33 c14 -12 -19 -1
-35 12 -18 14 -18 14 6 3 14 -6 27 -13 29 -15z m-1368 -90 l26 -79 -21 -9
c-26 -11 -311 -14 -348 -3 -33 9 -34 21 -10 102 l18 60 137 1 c75 0 140 4 144
7 16 16 29 -3 54 -79z m-1997 64 c-19 -34 -137 -188 -141 -185 -4 5 136 197
144 197 2 0 1 -6 -3 -12z m1533 -150 c-3 -8 -6 -5 -6 6 -1 11 2 17 5 13 3 -3
4 -12 1 -19z m861 5 c-10 -2 -28 -2 -40 0 -13 2 -5 4 17 4 22 1 32 -1 23 -4z
m-75 -10 c-7 -2 -19 -2 -25 0 -7 3 -2 5 12 5 14 0 19 -2 13 -5z m-209 -19 c3
-8 2 -12 -4 -9 -6 3 -10 10 -10 16 0 14 7 11 14 -7z m-24 -29 c0 -2 -10 -9
-22 -15 -22 -11 -22 -10 -4 4 21 17 26 19 26 11z m1239 -27 c-55 -103 -231
-285 -351 -363 -52 -32 -28 -8 40 42 81 61 212 196 272 281 45 64 59 78 39 40z
m-1865 -69 c226 -62 220 -55 224 -256 4 -168 -3 -197 -54 -213 -44 -15 -151 1
-306 46 -190 54 -235 84 -225 153 6 47 125 250 164 281 35 27 67 25 197 -11z
m893 16 c22 -15 110 -150 152 -232 46 -91 15 -134 -132 -182 -187 -61 -331
-88 -382 -71 -52 17 -60 45 -60 204 0 207 -5 201 220 266 114 32 171 37 202
15z m-1368 -225 c-12 -22 -24 -38 -26 -36 -4 4 37 76 44 76 2 0 -6 -18 -18
-40z m1710 -120 c11 -24 11 -24 -3 -6 -9 11 -16 24 -16 30 0 12 5 7 19 -24z
m-34 -107 c-18 -29 -47 -56 -79 -75 -11 -6 5 14 35 44 63 65 67 68 44 31z
m-886 -165 c-46 -38 -58 -35 -14 3 31 27 35 37 37 83 l2 51 4 -55 c3 -52 2
-57 -29 -82z"/>
</g>
</svg>
